<svg xmlns="http://www.w3.org/2000/svg" width="41" height="48" viewBox="0 0 41 48">
  <!-- Background -->
  <rect width="41" height="48" fill="#FFFFFF"/>
  
  <!-- Body -->
  <rect x="5.384" y="5.384" width="30.234" height="35.232" fill="#FF9908"/>
  
  <!-- Upper part -->
  <path d="M32.886,9.848h-4.951a4.128,4.128,0,0,0-4.124-4.124V0L32.886,9.848Z" fill="#FF9908"/>
  
  <!-- Top part -->
  <path d="M36.79,34.12H11.784a3.212,3.212,0,0,1-3.212-3.212V23.452H36.79Z" fill="#FF9908"/>
  
  <!-- Document shape -->
  <rect x="16" y="38.13" width="9" height="1.456" fill="#FFFFFF"/>
  <rect x="16" y="42.674" width="9" height="1.456" fill="#FFFFFF"/>
  
  <!-- Pencil -->
  <path d="M19.736,36.934l1.47,4.524l1.472-4.524h1.558l-2.094,6.014h-1.88l-2.084-6.014h1.558Z" fill="#FFFFFF"/>
  
  <!-- Eraser -->
  <path d="M28.02,17.436H4.97v0.498H28.02Z" fill="#FF9908"/>
  <rect x="9.428" y="24.75" width="1.594" height="1.594" fill="#FF9908"/>
  <rect x="21.153" y="24.75" width="1.594" height="1.594" fill="#FF9908"/>
  
  <!-- Circle part -->
  <circle cx="17.29" cy="17.29" r="0.798" fill="#FF9908"/>
  <circle cx="28.945" cy="17.29" r="0.798" fill="#FF9908"/>
</svg>
