<svg xmlns="http://www.w3.org/2000/svg" viewBox="0 0 24 24" width="100" height="100">
  <!-- Background -->
  <circle cx="12" cy="12" r="11" fill="#E0E0E0"/>
  
  <!-- Pencil Body -->
  <path d="M5.22 12.52a1.565 1.565 0 0 1-1.567-1.568c0-.52.258-.98.653-1.263V5.678C3.306 5.295 3.548 5 3.8 5h.5c.66 0 1.2-.54 1.2-1.2V1.8C5.5.806 6.306 0 7.3 0c.994 0 1.8.806 1.8 1.8V3.8c0 .66.54 1.2 1.2 1.2h.5c.252 0 .494.295.494.678v4.012c.395.283.653.743.653 1.263 0 .88-.717 1.567-1.567 1.567zm0-7.34c-.44 0-.8.36-.8.8V3.8c0 .253-.203.456-.456.456h-.5c-.404 0-.733-.33-.733-.733V1.8c0-.44-.36-.8-.8-.8-.44 0-.8.36-.8.8v1.267c0 .403-.33.733-.733.733h-.5C1.203 3.256 1 3.054 1 2.8V1.8c0-.44-.36-.8-.8-.8-.44 0-.8.36-.8.8v2c0 .253-.204.456-.457.456h-.5c-.253 0-.456.204-.456.457v3.286c0 .22.18.4.4.4H2c.22 0 .4.18.4.4v.733c0 .22.18.4.4.4h17.2c.22 0 .4-.18.4-.4v-.733c0-.22.18-.4.4-.4h.4c.22 0 .4-.18.4-.4v-3.2c0-.253-.204-.457-.457-.457h-.5c-.253 0-.456-.203-.456-.456v-2c0-.44-.36-.8-.8-.8z" fill="#424242"/>
  
  <!-- Pencil Tip -->
  <path d="M23.554 11.073c-.284-.397-.733-.654-1.254-.654h-1.533c-.22 0-.4-.18-.4-.4v-.8c0-.22-.18-.4-.4-.4H3.033c-.22 0-.4.18-.4.4v.8c0 .22-.18.4-.4.4H1.1c-.52 0-.97.257-1.254.654-.28.396-.36.86-.213 1.296l1.567 5.233c.145.48.537.84 1.028.94.192.045.38.068.567.068h15.2c.383 0 .766-.138 1.067-.4.317-.275.5-.673.5-1.068l1.567-5.232c.146-.48.066-.943-.214-1.296zM6.067 17.6l-1.067-3.567 16.534-.002-1.067 3.567H6.067z" fill="#424242"/>
  
  <!-- Text -->
  <text x="50%" y="50%" text-anchor="middle" alignment-baseline="middle" font-family="Arial, sans-serif" font-size="12" fill="#424242">Quiz</text>
</svg>
